<svg xmlns="http://www.w3.org/2000/svg" width="379" height="37">
         <defs>
            <style type="text/css">
               @namespace "http://www.w3.org/2000/svg";
               .line                 {fill: none; stroke: #1F1F1F;}
               .bold-line            {stroke: #0A0A0A; shape-rendering: crispEdges; stroke-width:
               2; }
               .thin-line            {stroke: #0F0F0F; shape-rendering: crispEdges}
               .filled               {fill: #1F1F1F; stroke: none;}
               text.terminal         {font-family: Verdana, Sans-serif;
               font-size: 12px;
               fill: #0A0A0A;
               font-weight: bold;
               }
               text.nonterminal      {font-family: Verdana, Sans-serif; font-style: italic;
               font-size: 12px;
               fill: #0D0D0D;
               }
               text.regexp           {font-family: Verdana, Sans-serif;
               font-size: 12px;
               fill: #0F0F0F;
               }
               rect, circle, polygon {fill: #1F1F1F; stroke: #1F1F1F;}
               rect.terminal         {fill: #CCCCCC; stroke: #1F1F1F;}
               rect.nonterminal      {fill: #E3E3E3; stroke: #1F1F1F;}
               rect.text             {fill: none; stroke: none;}
               polygon.regexp        {fill: #EFEFEF; stroke: #1F1F1F;}

            </style>
         </defs>

         <polygon points="9 17 1 13 1 21"/>
         <polygon points="17 17 9 13 9 21"/>
         <rect x="31" y="3" width="56" height="32" rx="10"/>
         <rect x="29" y="1" width="56" height="32" class="terminal" rx="10"/>
         <text class="terminal" x="39" y="21">new(</text><a xmlns:xlink="http://www.w3.org/1999/xlink" xlink:href="#options." xlink:title="options.">
            <rect x="107" y="3" width="72" height="32"/>
            <rect x="105" y="1" width="72" height="32" class="nonterminal"/>
            <text class="nonterminal" x="115" y="21">options.</text></a><rect x="199" y="3" width="24" height="32" rx="10"/>
         <rect x="197" y="1" width="24" height="32" class="terminal" rx="10"/>
         <text class="terminal" x="207" y="21">,</text><a xmlns:xlink="http://www.w3.org/1999/xlink" xlink:href="#output" xlink:title="output">
            <rect x="243" y="3" width="62" height="32"/>
            <rect x="241" y="1" width="62" height="32" class="nonterminal"/>
            <text class="nonterminal" x="251" y="21">output</text></a><rect x="325" y="3" width="26" height="32" rx="10"/>
         <rect x="323" y="1" width="26" height="32" class="terminal" rx="10"/>
         <text class="terminal" x="333" y="21">)</text>
         <path class="line" d="m17 17 h2 m0 0 h10 m56 0 h10 m0 0 h10 m72 0 h10 m0 0 h10 m24 0 h10 m0 0 h10 m62 0 h10 m0 0 h10 m26 0 h10 m3 0 h-3"/>
         <polygon points="369 17 377 13 377 21"/>
         <polygon points="369 17 361 13 361 21"/>
</svg>